<svg id="Capa_1" enable-background="new 0 0 512 512" height="512" viewBox="0 0 512 512" width="512" xmlns="http://www.w3.org/2000/svg"><g><path d="m512 256c0 141.385-114.615 256-256 256s-256-114.615-256-256c0-28.854 4.774-56.593 13.574-82.471.969-2.849 8.488-6.79 9.553-9.593 3.428-9.017.849-16.675 5.234-25.172 42.531-82.415 128.505-138.764 227.639-138.764 141.385 0 256 114.615 256 256z" fill="#ffef31"/><path d="m475.879 228.638c0 105.396-85.44 190.836-190.836 190.836s-190.836-85.44-190.836-190.836c0-105.395 85.44-190.836 190.836-190.836 105.395.001 190.836 85.441 190.836 190.836z" fill="#fff261"/><path d="m203.226 138.766c-45.493 0-82.504 37.011-82.504 82.504v107.955c0 45.493 37.011 82.504 82.504 82.504s82.504-37.011 82.504-82.504v-107.955c0-45.493-37.01-82.504-82.504-82.504zm52.504 190.459c0 28.951-23.553 52.504-52.504 52.504s-52.504-23.553-52.504-52.504v-107.955c0-28.951 23.553-52.504 52.504-52.504s52.504 23.553 52.504 52.504zm144.584-190.459c-45.493 0-82.504 37.011-82.504 82.504v107.955c0 45.493 37.011 82.504 82.504 82.504s82.504-37.011 82.504-82.504v-107.955c0-45.493-37.01-82.504-82.504-82.504zm52.504 190.459c0 28.951-23.553 52.504-52.504 52.504s-52.504-23.553-52.504-52.504v-107.955c0-28.951 23.553-52.504 52.504-52.504s52.504 23.553 52.504 52.504zm-381.215-170.696v233.436c0 8.284-6.716 15-15 15-4.002 0-7.638-1.567-10.328-4.122-1.212-1.727-2.402-3.47-3.572-5.228-.71-1.744-1.101-3.651-1.101-5.65v-218.436h-28.027c3.507-10.311 7.653-20.327 12.391-30h30.638c8.284 0 14.999 6.716 14.999 15z" fill="#d8c100"/><path d="m90.34 139.282v233.436c0 8.284-6.716 15-15 15s-15-6.716-15-15v-218.436h-34.895c-8.284 0-15-6.716-15-15s6.716-15 15-15h49.895c8.284 0 15 6.716 15 15zm214.127 62.74v107.955c0 45.493-37.011 82.504-82.504 82.504s-82.504-37.011-82.504-82.504v-107.955c0-45.493 37.011-82.504 82.504-82.504s82.504 37.012 82.504 82.504zm-30 0c0-28.951-23.553-52.504-52.504-52.504s-52.504 23.553-52.504 52.504v107.955c0 28.951 23.553 52.504 52.504 52.504s52.504-23.553 52.504-52.504zm227.088 0v107.955c0 45.493-37.011 82.504-82.504 82.504s-82.504-37.011-82.504-82.504v-107.955c0-45.493 37.011-82.504 82.504-82.504s82.504 37.012 82.504 82.504zm-30 0c0-28.951-23.553-52.504-52.504-52.504s-52.504 23.553-52.504 52.504v107.955c0 28.951 23.553 52.504 52.504 52.504s52.504-23.553 52.504-52.504z" fill="#6354b2"/><path d="m90.34 139.282v144.08c0 8.284-6.716 15-15 15s-15-6.716-15-15v-129.08h-9.947c-8.284 0-15-6.716-15-15s6.716-15 15-15h24.947c10.086 0 15 6.716 15 15zm131.623-19.763c-8.284 0-15 6.716-15 15s6.716 15 15 15c28.951 0 52.504 28.105 52.504 57.056v103.403c0 8.284 6.716 15 15 15s15-6.716 15-15v-107.956c0-49.831-37.011-82.503-82.504-82.503zm197.088 0c-8.283.14-15 6.716-15 15s6.716 15 15 15c28.951 0 51.907 26.418 51.907 52.504l.597 107.955c0 8.284 6.716 15 15 15s15-6.716 15-15v-107.956c0-49.065-36.725-83.277-82.504-82.503z" fill="#8379c2"/></g></svg>